PathFileType	4	(X/Y/Z)	s02c0203.trc
DataRate	CameraRate	NumFrames	NumMarkers	Units	OrigDataRate	OrigDataStartFrame	OrigNumFrames
200	200	4	51	mm	200	0	2000
Frame#	Time	racr			lacr			c7			jug			rlel			rdr			llel			ldr			s2			lic			ric			lasi			rasi			rpsi			lpsi			rgt			lgt			rth1			rth2			rth3			rth4			rlfc			rmfc			rsh1			rsh2			rsh3			rsh4			rlmal			rmmal			rcal			rtoe			rmt5			rmt1			lth1			lth2			lth4			lth3			llfc			lmfc			lsh1			lsh2			lsh3			lsh4			llmal			lmmal			lcal			ltoe			lmt5			SBIKE			LBIKE			RBIKE			
		X1	Y1	Z1	X2	Y2	Z2	X3	Y3	Z3	X4	Y4	Z4	X5	Y5	Z5	X6	Y6	Z6	X7	Y7	Z7	X8	Y8	Z8	X9	Y9	Z9	X10	Y10	Z10	X11	Y11	Z11	X12	Y12	Z12	X13	Y13	Z13	X14	Y14	Z14	X15	Y15	Z15	X16	Y16	Z16	X17	Y17	Z17	X18	Y18	Z18	X19	Y19	Z19	X20	Y20	Z20	X21	Y21	Z21	X22	Y22	Z22	X23	Y23	Z23	X24	Y24	Z24	X25	Y25	Z25	X26	Y26	Z26	X27	Y27	Z27	X28	Y28	Z28	X29	Y29	Z29	X30	Y30	Z30	X31	Y31	Z31	X32	Y32	Z32	X33	Y33	Z33	X34	Y34	Z34	X35	Y35	Z35	X36	Y36	Z36	X37	Y37	Z37	X38	Y38	Z38	X39	Y39	Z39	X40	Y40	Z40	X41	Y41	Z41	X42	Y42	Z42	X43	Y43	Z43	X44	Y44	Z44	X45	Y45	Z45	X46	Y46	Z46	X47	Y47	Z47	X48	Y48	Z48	X49	Y49	Z49	X50	Y50	Z50	X51	Y51	Z51	
0	0.0000	449.533720	1306.240889	-136.584223	464.387439	1310.364804	-484.108664	484.970374	1331.481377	-315.261724	411.781216	1213.486619	-314.023786	572.828988	1066.894751	-118.248797	717.287082	888.720851	-128.478550	560.374554	1060.162266	-543.861857	699.282376	877.906931	-516.705978	0.000000	0.000000	-0.000000	0.000000	0.000000	-0.000000	0.000000	0.000000	-0.000000	170.578956	1066.502895	-438.521794	107.401406	1112.526706	-180.477058	-1.989374	1135.422768	-290.693401	7.326848	1139.966168	-375.751947	88.018467	1039.758742	-135.134919	72.714858	1004.777380	-498.072258	177.930267	1025.634060	-139.127655	266.174100	1021.195706	-152.048026	341.606499	986.883763	-129.747928	272.716877	1043.027817	-182.571990	467.188974	905.942368	-163.060220	459.562662	882.658225	-275.480126	450.380003	794.048146	-145.382341	431.146218	709.152850	-161.578850	377.290291	640.498339	-152.323347	442.722331	703.715122	-198.233671	315.032982	538.186025	-153.990667	323.945626	556.269841	-235.267664	237.457117	493.799730	-193.491028	521.903656	466.123703	-195.980798	414.005525	457.124357	-136.292413	438.981813	468.225327	-244.438453	173.669910	905.432777	-514.955113	239.579031	849.051601	-512.320210	266.798576	867.431908	-493.825331	266.891041	763.926513	-511.338937	319.061048	675.676814	-488.468623	326.370122	646.475756	-386.527522	279.683563	577.752896	-508.420886	258.149787	495.677859	-490.842078	196.118191	430.387118	-493.482589	276.179139	489.874779	-454.976588	133.013711	350.788472	-475.318593	149.037721	340.826943	-399.893870	56.687396	341.515344	-434.027348	280.293578	161.313895	-443.777595	180.671129	206.170327	-502.566580	-129.560083	869.293743	-313.635347	32.415724	82.627925	-515.315037	33.292802	81.791503	-115.051372	
1	0.0050	449.523789	1306.227193	-136.539710	464.393784	1310.352214	-484.063121	484.979301	1331.466214	-315.217437	411.771166	1213.455360	-313.929665	572.832625	1066.880650	-118.225169	717.292844	888.723291	-128.462852	560.360856	1060.168865	-543.844994	699.279054	877.912919	-516.689207	0.000000	0.000000	-0.000000	0.000000	0.000000	-0.000000	0.000000	0.000000	-0.000000	170.561400	1066.524748	-438.537455	107.437345	1112.498024	-180.476471	-1.961818	1135.422680	-290.688927	7.326756	1139.981989	-375.742302	88.035530	1039.751915	-135.133721	72.709656	1004.832300	-498.081605	177.917042	1025.610935	-139.118839	266.149714	1021.165437	-152.031604	341.588585	986.841184	-129.705163	272.695894	1043.029738	-182.544357	467.143867	905.921182	-163.037281	459.532702	882.637531	-275.472485	450.325030	793.999801	-145.383029	431.106114	709.139908	-161.579140	377.233021	640.478076	-152.315271	442.668974	703.678400	-198.215083	314.976208	538.186884	-153.982056	323.900952	556.250846	-235.293226	237.400643	493.770442	-193.485942	521.879051	466.168889	-195.962314	413.977191	457.144879	-136.310420	438.945771	468.237256	-244.418950	173.689910	905.476584	-514.949380	239.561889	849.060903	-512.181897	266.980814	866.901199	-493.453112	266.957243	763.985739	-511.312237	319.101107	675.728858	-488.447270	326.416751	646.548011	-386.489142	279.765141	577.807220	-508.404577	258.258362	495.725270	-490.859722	196.228961	430.422838	-493.508496	276.268778	489.915567	-454.946638	133.151107	350.794055	-475.342655	149.184666	340.883128	-399.897535	56.823558	341.585141	-434.042827	280.310408	161.212070	-443.771994	180.725522	206.158823	-502.570387	-129.555694	869.298103	-313.631881	32.430416	82.621605	-515.328372	33.011929	81.958206	-115.198237	
2	0.0100	449.532638	1306.204223	-136.526539	464.405251	1310.367473	-484.031330	484.993010	1331.449703	-315.174008	411.771532	1213.442005	-313.936127	572.837781	1066.874427	-118.208956	717.296293	888.727883	-128.453008	560.367248	1060.177180	-543.827233	699.286442	877.916615	-516.708593	0.000000	0.000000	-0.000000	0.000000	0.000000	-0.000000	0.000000	0.000000	-0.000000	170.545376	1066.548999	-438.542802	107.435828	1112.493340	-180.466426	-1.986687	1135.437544	-290.645043	7.324223	1140.003142	-375.705939	88.017508	1039.741542	-135.117420	72.709079	1004.862394	-498.073285	177.898988	1025.610607	-139.097884	266.118220	1021.152905	-152.018349	341.564177	986.821638	-129.691234	272.679023	1043.020200	-182.530651	467.126710	905.906278	-163.014925	459.505255	882.618753	-275.453956	450.287837	793.995378	-145.378787	431.073029	709.123639	-161.559753	377.205611	640.478012	-152.315763	442.630024	703.662298	-198.189753	314.921821	538.182207	-153.979117	323.872486	556.238704	-235.308615	237.359290	493.755709	-193.481003	521.859012	466.210882	-195.958192	413.948344	457.157136	-136.307986	438.915076	468.271856	-244.412017	173.706870	905.528350	-514.924452	239.587660	849.145904	-512.145008	266.992566	867.004582	-493.430761	267.010477	764.048471	-511.282146	319.147903	675.794954	-488.439974	326.469981	646.639812	-386.472734	279.850512	577.873206	-508.403744	258.362858	495.777653	-490.869706	196.343675	430.457309	-493.494358	276.356849	489.991791	-454.928025	133.305269	350.812170	-475.364131	149.292715	340.907051	-399.905899	56.980436	341.668992	-434.060226	280.324044	161.120997	-443.775145	180.766929	206.127340	-502.561009	-129.559835	869.295510	-313.635760	32.423437	82.630963	-515.318795	33.027570	81.941926	-115.177245	
3	0.0150	449.523302	1306.205941	-136.493595	464.243955	1310.921685	-483.584956	485.180595	1330.814532	-315.369682	411.778322	1213.411857	-313.872172	572.856370	1066.871232	-118.211798	717.305594	888.719053	-128.450501	560.507318	1060.261823	-543.455689	698.691497	878.327858	-517.107234	-17.958761	1107.776684	-328.171730	0.000000	0.000000	-0.000000	0.000000	0.000000	-0.000000	170.699028	1066.945683	-439.326852	107.007147	1111.936938	-181.229599	-1.095798	1135.245727	-290.968523	7.607029	1140.265444	-374.343581	87.993137	1039.736771	-135.102941	72.699832	1005.079622	-498.025152	177.857883	1025.619784	-139.063313	266.102150	1021.143279	-151.984218	341.538456	986.816693	-129.667594	272.318330	1043.210831	-182.234434	467.233640	905.821537	-163.073702	459.487743	882.632504	-275.443674	450.251494	793.968725	-145.368370	427.967220	706.981691	-162.867396	377.159702	640.449785	-152.303550	443.014471	703.388775	-198.359737	314.223174	539.184723	-153.342121	323.311972	556.349056	-235.364069	237.105717	493.869722	-193.346020	521.825538	466.245496	-195.961259	413.922526	457.160232	-136.298232	439.031828	468.253257	-244.687733	173.721475	905.588862	-514.905124	239.750722	848.927265	-512.098702	266.911848	867.698420	-493.789279	267.077176	764.151366	-511.251636	319.388191	675.706341	-488.541884	326.523984	646.724276	-386.442177	279.931505	577.937118	-508.394676	258.566681	495.830142	-491.135855	196.493398	430.508873	-493.507718	276.481503	490.047700	-454.919973	133.464911	350.821131	-475.393340	149.439085	340.899786	-399.910138	57.146201	341.748502	-434.066595	280.358051	161.025035	-443.793006	180.772646	205.977951	-502.637251	-129.540627	869.299669	-313.690144	32.429100	82.614292	-515.322932	33.330802	81.766916	-115.034217	
